# xmcd
# Track frame offsets:
# 150
# 15713
# 17843
# 35758
# 48905
# 62937
# 75783
# 89587
# 102763
# 114572
# 129118
# 141285
# 150818
#
# Disc length: 2184 seconds
# Revision: 0
# Processed by: cddbd v1.4PL0 Copyright (c) Steve Scherf et al.
# Submitted via: VisiTrax 2.9.5.180 - For more info visit www.synapsa.com
#
DISCID=9808860d
DTITLE=Don Williams - The Ties That Bind:  CD 2
DYEAR=2000
DGENRE=
TTITLE0=You're My Best Friend
TTITLE1=Dialogue
TTITLE2=I Believe In You
TTITLE3=The Shelter Of Your Eyes
TTITLE4=Come Early Morning
TTITLE5=Atta Way To Go
TTITLE6=We Should Be Together
TTITLE7=Down The Road I Go
TTITLE8=Miller's Cave
TTITLE9=She's In Love With A Rodeo Man
TTITLE10=He's A Friend Of Mine
TTITLE11=Bringing It Down To You
TTITLE12=I Wouldn't Want To Live If You Didn't Love Me
EXTD=Tracks 1-3 Recorded Live\nTracks 4-13 Studio Recordings
EXTT0=
EXTT1=
EXTT2=
EXTT3=
EXTT4=
EXTT5=
EXTT6=
EXTT7=
EXTT8=
EXTT9=
EXTT10=
EXTT11=
EXTT12=
PLAYORDER=
